<?xml version="1.0" encoding="UTF-8"?>
<svg id="Layer_1" xmlns="http://www.w3.org/2000/svg" version="1.1" xmlns:xlink="http://www.w3.org/1999/xlink" viewBox="0 0 482 355.82">
  <!-- Generator: Adobe Illustrator 29.7.1, SVG Export Plug-In . SVG Version: 2.1.1 Build 8)  -->
  <defs>
    <style>
      .st0 {
        fill: url(#linear-gradient2);
      }

      .st1 {
        fill: url(#linear-gradient1);
      }

      .st2 {
        fill: url(#linear-gradient4);
      }

      .st3 {
        fill: url(#linear-gradient5);
      }

      .st4 {
        fill: url(#linear-gradient3);
      }

      .st5 {
        fill: url(#linear-gradient6);
      }

      .st6 {
        fill: url(#linear-gradient);
      }
    </style>
    <linearGradient id="linear-gradient" x1="19.47" y1="71.52" x2="442.47" y2="274.66" gradientUnits="userSpaceOnUse">
      <stop offset="0" stop-color="#ff6a26"/>
      <stop offset="1" stop-color="#ed9f41"/>
    </linearGradient>
    <linearGradient id="linear-gradient1" x1="-71.14" y1="260.18" x2="351.86" y2="463.32" xlink:href="#linear-gradient"/>
    <linearGradient id="linear-gradient2" x1="-60.61" y1="238.26" x2="362.39" y2="441.4" xlink:href="#linear-gradient"/>
    <linearGradient id="linear-gradient3" x1="-52.06" y1="220.46" x2="370.94" y2="423.6" xlink:href="#linear-gradient"/>
    <linearGradient id="linear-gradient4" x1="-43.73" y1="203.1" x2="379.27" y2="406.25" xlink:href="#linear-gradient"/>
    <linearGradient id="linear-gradient5" x1="-37.97" y1="191.12" x2="385.03" y2="394.26" xlink:href="#linear-gradient"/>
    <linearGradient id="linear-gradient6" x1="-28.44" y1="171.26" x2="394.56" y2="374.41" xlink:href="#linear-gradient"/>
  </defs>
  <path class="st6" d="M456.14,83.86h-143.42c-14.28,0-25.86,11.58-25.86,25.86v26.64c0,21.76-27.6,31.12-40.83,13.85l-43.1-56.23c-4.89-6.38-12.48-10.13-20.53-10.13h-13.1c-14.28,0-25.86,11.58-25.86,25.86v27c0,21.79-27.66,31.13-40.87,13.8l-43.08-56.47c-4.89-6.41-12.5-10.18-20.57-10.18h-13.06c-14.28,0-25.86,11.58-25.86,25.86v136.37c0,14.28,11.58,25.86,25.86,25.86h0c14.28,0,25.86-11.58,25.86-25.86v-27c0-21.79,27.66-31.13,40.87-13.8l43.07,56.48c4.89,6.42,12.5,10.18,20.57,10.18h13.06c14.28,0,25.86-11.58,25.86-25.86v-27.64c0-21.76,27.6-31.12,40.83-13.85l110.98,144.77c3.11,4.06,7.94,6.45,13.06,6.45h10.25c13.64,0,21.36-15.64,13.06-26.47l-31.65-41.29c-5.05-6.58-.35-16.09,7.94-16.09h96.51c14.28,0,25.86-11.58,25.86-25.86V109.72c0-14.28-11.58-25.86-25.86-25.86h0ZM407.51,220.23h-46.17c-12.57,0-22.76-10.19-22.76-22.76v-39.12c0-12.57,10.19-22.76,22.76-22.76h46.17c12.57,0,22.76,10.19,22.76,22.76v39.12c0,12.57-10.19,22.76-22.76,22.76h0Z"/>
  <g>
    <path class="st1" d="M57.93,302.65c2.9,0,5.21.87,6.94,2.6,1.73,1.73,2.6,4.05,2.6,6.95v16.28h-4.25v-15.1c0-2.01-.6-3.62-1.8-4.82-1.2-1.2-2.8-1.8-4.79-1.8s-3.72.61-4.98,1.84c-1.26,1.22-1.88,2.85-1.88,4.88v15h-4.25v-15.1c0-2.01-.6-3.62-1.8-4.82-1.2-1.2-2.8-1.8-4.8-1.8s-3.72.61-4.98,1.84-1.88,2.85-1.88,4.88v15h-4.25v-25.22h4.25v3.41c1.92-2.67,4.67-4.01,8.26-4.01,1.96,0,3.68.43,5.15,1.3,1.46.87,2.57,2.08,3.31,3.65.95-1.59,2.21-2.82,3.78-3.67s3.36-1.28,5.38-1.28h-.01Z"/>
    <path class="st0" d="M100.96,329.08c-2.51,0-4.8-.58-6.86-1.73s-3.68-2.74-4.84-4.76c-1.17-2.02-1.75-4.26-1.75-6.73s.58-4.71,1.75-6.73c1.17-2.02,2.78-3.61,4.84-4.76s4.35-1.73,6.86-1.73c3.8,0,6.99,1.26,9.55,3.79,2.57,2.53,3.85,5.67,3.85,9.42s-1.28,6.89-3.85,9.42-5.75,3.79-9.55,3.79v.02ZM100.96,324.97c2.58,0,4.72-.87,6.44-2.61,1.71-1.74,2.57-3.91,2.57-6.5s-.86-4.76-2.57-6.5c-1.72-1.74-3.86-2.61-6.44-2.61s-4.75.87-6.47,2.61-2.58,3.91-2.58,6.5.86,4.76,2.58,6.5,3.88,2.61,6.47,2.61Z"/>
    <path class="st4" d="M146.61,329.08c-2.51,0-4.8-.58-6.86-1.73s-3.68-2.74-4.84-4.76c-1.17-2.02-1.75-4.26-1.75-6.73s.58-4.71,1.75-6.73c1.17-2.02,2.78-3.61,4.84-4.76s4.35-1.73,6.86-1.73,4.73.57,6.76,1.7c2.03,1.13,3.61,2.68,4.76,4.63l-3.7,2.22c-.77-1.37-1.85-2.45-3.24-3.25s-2.92-1.2-4.59-1.2c-2.59,0-4.75.87-6.47,2.61s-2.58,3.91-2.58,6.5.86,4.76,2.58,6.5,3.88,2.61,6.47,2.61c1.67,0,3.2-.4,4.59-1.21,1.38-.8,2.46-1.89,3.24-3.26l3.7,2.22c-1.14,1.96-2.73,3.51-4.77,4.65-2.04,1.14-4.29,1.7-6.75,1.7v.02Z"/>
    <path class="st2" d="M194.69,328.48l-9.06-10.15-3.26,3.48v6.67h-4.25v-35.63h4.25v23.21l12.05-12.8h5.56l-11.33,11.91,11.67,13.31h-5.63Z"/>
    <path class="st3" d="M238.35,303.26h4.76l-13.62,30.56c-.63,1.46-1.52,2.61-2.67,3.43s-2.42,1.23-3.8,1.23c-1,0-2.03-.23-3.1-.68s-1.97-1.04-2.69-1.76l1.79-3.26c.95,1.06,2.07,1.59,3.36,1.59,1.42,0,2.5-.76,3.24-2.27l1.81-3.77-10.97-25.08h4.88l8.53,20.12,8.5-20.12h-.02Z"/>
    <path class="st5" d="M272.64,329.08c-2.51,0-4.8-.58-6.86-1.73s-3.68-2.74-4.84-4.76c-1.17-2.02-1.75-4.26-1.75-6.73s.58-4.71,1.75-6.73c1.17-2.02,2.78-3.61,4.84-4.76s4.35-1.73,6.86-1.73c3.8,0,6.99,1.26,9.55,3.79,2.57,2.53,3.85,5.67,3.85,9.42s-1.28,6.89-3.85,9.42-5.75,3.79-9.55,3.79v.02ZM272.64,324.97c2.58,0,4.72-.87,6.44-2.61,1.71-1.74,2.57-3.91,2.57-6.5s-.86-4.76-2.57-6.5c-1.72-1.74-3.86-2.61-6.44-2.61s-4.75.87-6.47,2.61-2.58,3.91-2.58,6.5.86,4.76,2.58,6.5,3.88,2.61,6.47,2.61Z"/>
  </g>
</svg>